<?xml version="1.0" encoding="UTF-8" standalone="no"?>
<!-- Created with Inkscape (http://www.inkscape.org/) -->

<svg
   version="1.1"
   id="svg1"
   width="384.9697"
   height="496.48486"
   viewBox="0 0 384.96969 496.48486"
   sodipodi:docname="articulo.svg"
   inkscape:version="1.4.2 (f4327f4, 2025-05-13)"
   xmlns:inkscape="http://www.inkscape.org/namespaces/inkscape"
   xmlns:sodipodi="http://sodipodi.sourceforge.net/DTD/sodipodi-0.dtd"
   xmlns="http://www.w3.org/2000/svg"
   xmlns:svg="http://www.w3.org/2000/svg">
  <defs
     id="defs1" />
  <sodipodi:namedview
     id="namedview1"
     pagecolor="#505050"
     bordercolor="#eeeeee"
     borderopacity="1"
     inkscape:showpageshadow="0"
     inkscape:pageopacity="0"
     inkscape:pagecheckerboard="0"
     inkscape:deskcolor="#d1d1d1"
     inkscape:zoom="1.6254272"
     inkscape:cx="189.79626"
     inkscape:cy="248.24243"
     inkscape:window-width="1920"
     inkscape:window-height="1009"
     inkscape:window-x="1912"
     inkscape:window-y="-8"
     inkscape:window-maximized="1"
     inkscape:current-layer="g1" />
  <g
     inkscape:groupmode="layer"
     inkscape:label="Image"
     id="g1"
     transform="translate(-58.578701,-0.1479846)">
    <path
       style="fill:#000000"
       d="M 61.299442,494.29257 58.578701,491.9523 V 285.79777 79.643245 L 98.360738,39.895615 138.14277,0.1479846 h 128.64874 128.64875 l 2.72074,2.340283 2.72074,2.340282 V 248.39041 491.95228 l -2.72074,2.34028 -2.72074,2.34028 H 229.73022 64.020183 Z M 384.88174,248.39041 V 15.663137 H 267.06355 149.24537 v 33.876268 c 0,20.092804 -0.39204,34.907404 -0.96353,36.410537 -1.89678,4.98891 -4.64083,5.34956 -40.7023,5.34956 H 74.578702 V 286.20859 481.11769 H 229.73022 384.88174 Z M 116.47501,420.95032 c -4.80158,-1.92702 -5.04783,-4.36093 -5.04783,-49.89324 0,-47.86702 0.0234,-48.04732 6.47031,-49.93159 2.56836,-0.75066 17.50107,-0.99359 48.48264,-0.78871 l 44.77112,0.29606 2.50161,2.35085 c 4.33838,4.07694 2.95499,10.47934 -2.73146,12.64133 -1.6792,0.63843 -17.37741,1.00782 -42.83007,1.00782 h -40.1793 v 34.42424 34.42425 h 36.36364 36.36364 v -24.0734 -24.07339 l 2.41635,-2.27004 c 3.38109,-3.17637 7.91076,-3.02164 10.82803,0.36989 l 2.27077,2.63993 -0.0308,29.27926 c -0.0324,30.76338 -0.0811,31.12488 -4.51147,33.4845 -2.60935,1.38975 -91.69209,1.49485 -95.13714,0.11224 z m 131.1946,-0.12562 c -5.02665,-2.95986 -5.88563,-8.7258 -1.86334,-12.50768 2.41211,-2.26793 3.08511,-2.36238 19.07995,-2.67775 18.97458,-0.37413 24.34051,0.18705 26.9745,2.82104 2.41662,2.41663 2.42534,7.75545 0.0175,10.73177 -1.82663,2.25791 -2.12864,2.29257 -22.06061,2.53192 -14.15871,0.17003 -20.78923,-0.0992 -22.14802,-0.8993 z m 0,-42.68139 c -5.02313,-2.91967 -5.88638,-8.71103 -1.86219,-12.49295 l 2.50145,-2.35085 44.28643,-0.29243 c 24.35754,-0.16084 45.72896,-0.0274 47.49204,0.29651 1.76308,0.32391 4.05399,1.43733 5.09091,2.47425 2.43281,2.43281 2.44874,7.76231 0.0321,10.74757 l -1.85318,2.28925 -46.8741,0.22796 c -34.22604,0.16645 -47.3974,-0.0762 -48.81349,-0.89931 z m 0.57282,-42.56752 c -5.40267,-2.16017 -6.6533,-8.62786 -2.43486,-12.5921 l 2.50158,-2.35085 44.2863,-0.28783 c 24.35746,-0.1583 45.72881,-0.0249 47.49189,0.29651 5.69393,1.03793 8.47869,6.09912 6.37386,11.58424 -1.62542,4.23575 -3.67431,4.41038 -50.98586,4.34561 -26.37059,-0.0361 -45.86067,-0.44692 -47.23291,-0.99558 z M 116.1361,292.49572 c -5.73902,-3.11774 -5.02313,-11.76163 1.15238,-13.91443 4.41911,-1.54051 220.38644,-1.56767 224.80236,-0.0283 4.39921,1.53358 6.23308,6.1519 4.37036,11.00608 -1.73144,4.51206 1.01206,4.40957 -116.92525,4.36826 -94.44832,-0.0331 -111.21511,-0.24476 -113.39985,-1.43163 z m 0.51227,-42.57256 c -6.60721,-2.90767 -5.79529,-12.07218 1.25198,-14.13187 2.56468,-0.74957 17.51879,-0.99259 48.47978,-0.78785 l 44.77112,0.29606 2.50161,2.35085 c 3.35825,3.15588 3.35823,7.65761 -4e-5,10.81345 l -2.50164,2.35085 -45.74079,0.21904 c -36.99972,0.17718 -46.31814,-0.035 -48.76202,-1.11053 z m 131.59406,0.31929 c -3.21165,-1.28412 -4.87478,-3.73555 -4.87478,-7.18537 0,-3.56286 1.67417,-5.90497 5.17139,-7.23461 3.75956,-1.42938 89.43604,-1.37088 93.5518,0.0639 3.45002,1.20268 4.97271,3.39843 4.97271,7.17073 0,3.7723 -1.52269,5.96804 -4.97271,7.17073 -3.92345,1.36772 -90.43055,1.38122 -93.84841,0.0146 z M 116.64837,207.25649 c -6.00937,-2.64457 -5.84285,-11.47134 0.26413,-14.00093 2.0825,-0.8626 14.63739,-1.0937 48.52405,-0.89321 l 45.71465,0.27048 2.50163,2.35085 c 3.35828,3.15587 3.35827,7.6576 -1e-5,10.81346 l -2.50164,2.35085 -45.74079,0.21904 c -36.99972,0.17718 -46.31814,-0.0351 -48.76202,-1.11054 z m 132.47579,0.69152 c -7.40702,-2.70768 -7.77688,-12.0579 -0.58512,-14.7922 1.69452,-0.64426 18.73675,-1.00782 47.24186,-1.00782 46.96023,0 49.05918,0.18252 50.6803,4.40708 1.86272,4.85418 0.0288,9.4725 -4.37036,11.00607 -3.16757,1.10422 -90.01567,1.46563 -92.96668,0.38687 z M 116.64837,164.57525 c -5.89418,-2.56545 -5.80751,-11.87358 0.13157,-14.13162 1.62069,-0.61619 42.28675,-0.96231 113.06156,-0.96231 117.59252,0 114.88934,-0.10216 116.6197,4.40708 1.86272,4.85418 0.0288,9.4725 -4.37036,11.00607 -2.17701,0.75891 -35.0834,1.06062 -112.74775,1.03374 -90.12004,-0.0312 -110.21213,-0.2724 -112.69472,-1.35296 z m 54.4163,-74.309458 c -1.59938,-0.47687 -3.45392,-1.61367 -4.12121,-2.52624 -1.79406,-2.45352 -1.47308,-7.540675 0.64047,-10.150804 l 1.85372,-2.289246 h 86.95924 86.95923 l 1.85372,2.289246 c 2.02289,2.498163 2.41846,6.96484 0.87261,9.853284 -0.53961,1.00827 -2.61234,2.28624 -4.60606,2.83994 -4.53946,1.26069 -166.18058,1.24534 -170.41172,-0.0162 z M 132.76052,51.541926 c 0,-12.8 -0.1125,-23.272728 -0.25,-23.272728 -0.1375,0 -10.71591,10.472728 -23.50758,23.272728 L 85.745371,74.814654 h 23.507569 23.50758 z m 287.7549,443.166864 c -3.21129,-2.52601 -4.04449,-6.10511 -2.23558,-9.60317 1.55545,-3.00791 3.25692,-3.98793 6.92363,-3.98793 h 2.34494 V 248.39041 15.663137 h -2.34494 c -3.66671,0 -5.36818,-0.980023 -6.92363,-3.987929 -1.80891,-3.498055 -0.97571,-7.0771644 2.23558,-9.6031664 1.96527,-1.54588 3.93448,-1.924057 10.01877,-1.924057 6.60711,0 7.91967,0.298417 10.29348,2.340283 l 2.72074,2.340282 V 248.39041 491.95228 l -2.72074,2.34028 c -2.37381,2.04187 -3.68637,2.34028 -10.29348,2.34028 -6.08429,0 -8.0535,-0.37817 -10.01877,-1.92405 z"
       id="path1" />
  </g>
</svg>
