<?xml version="1.0" encoding="UTF-8" standalone="no"?>
<!-- Created with Inkscape (http://www.inkscape.org/) -->

<svg
   width="28.53307mm"
   height="28.535149mm"
   viewBox="0 0 28.53307 28.535149"
   version="1.1"
   id="svg5"
   inkscape:version="1.1.2 (b8e25be833, 2022-02-05)"
   sodipodi:docname="gschoolar.svg"
   xmlns:inkscape="http://www.inkscape.org/namespaces/inkscape"
   xmlns:sodipodi="http://sodipodi.sourceforge.net/DTD/sodipodi-0.dtd"
   xmlns="http://www.w3.org/2000/svg"
   xmlns:svg="http://www.w3.org/2000/svg">
  <sodipodi:namedview
     id="namedview7"
     pagecolor="#505050"
     bordercolor="#eeeeee"
     borderopacity="1"
     inkscape:pageshadow="0"
     inkscape:pageopacity="0"
     inkscape:pagecheckerboard="0"
     inkscape:document-units="mm"
     showgrid="false"
     fit-margin-top="0"
     fit-margin-left="0"
     fit-margin-right="0"
     fit-margin-bottom="0"
     inkscape:zoom="1.466344"
     inkscape:cx="179.69863"
     inkscape:cy="86.609964"
     inkscape:window-width="1920"
     inkscape:window-height="1009"
     inkscape:window-x="-8"
     inkscape:window-y="-8"
     inkscape:window-maximized="1"
     inkscape:current-layer="layer1" />
  <defs
     id="defs2" />
  <g
     inkscape:label="Capa 1"
     inkscape:groupmode="layer"
     id="layer1"
     transform="translate(-1.9190965,1.2425807)">
    <path
       style="fill:#4285f4;fill-opacity:1;stroke-width:0.0632877"
       d="M 14.981779,27.259416 C 12.726826,27.055291 10.56578,26.342174 8.6946643,25.184749 5.0636274,22.938681 2.6732099,19.28745 2.035386,15.013068 c -0.1550526,-1.039085 -0.1550526,-2.948044 0,-3.987129 0.7736342,-5.1845147 4.0995451,-9.3851857 8.962324,-11.31953866 1.60912,-0.640088 3.297787,-0.94898104 5.187921,-0.94898104 1.415894,0 2.28434,0.106009 3.59202,0.43846904 2.813861,0.715387 5.455381,2.37212296 7.308141,4.58360296 1.746819,2.085023 2.845398,4.534435 3.250084,7.2464477 0.155053,1.039085 0.155053,2.948044 0,3.987129 -0.946453,6.342677 -5.827896,11.243511 -12.09509,12.143138 -0.869748,0.124848 -2.462693,0.175296 -3.259007,0.10321 z m 1.678512,-3.9895 c 0.654703,-0.09308 1.392715,-0.295687 1.939823,-0.532534 1.364291,-0.590614 2.378456,-1.665347 2.750196,-2.914444 0.164915,-0.554137 0.149015,-1.458926 -0.03504,-1.993564 -0.290662,-0.844333 -0.785045,-1.419635 -2.22206,-2.585757 -0.827569,-0.671564 -1.008154,-0.914417 -1.008625,-1.356428 -4.79e-4,-0.518533 0.22868,-0.850442 1.12112,-1.623269 0.610208,-0.52842 1.025793,-1.083034 1.265419,-1.688753 0.156182,-0.394788 0.172213,-0.511751 0.172421,-1.2579967 2.39e-4,-0.809483 -0.03748,-1.009214 -0.305786,-1.619631 -0.03336,-0.0759 0.23694,-0.340948 1.096933,-1.075593 0.627662,-0.536177 1.170086,-0.984495 1.205389,-0.996263 0.0419,-0.01397 0.06419,0.398674 0.06419,1.18828 v 1.209675 l -0.230936,0.202763 c -0.399114,0.350427 -0.401944,0.370579 -0.401944,2.8633147 0,2.13643 0.0066,2.264097 0.128296,2.502747 0.166049,0.325486 0.564627,0.611776 0.927476,0.666188 0.415199,0.06226 0.762759,-0.06277 1.074594,-0.386596 0.391665,-0.406721 0.415357,-0.588957 0.390591,-3.004335 -0.02083,-2.0329157 -0.02284,-2.0599157 -0.171981,-2.3202027 -0.08299,-0.144844 -0.232508,-0.323693 -0.33226,-0.397444 l -0.18137,-0.134091 -4.78e-4,-1.754341 -4.79e-4,-1.754341 0.301131,-0.266541 0.301131,-0.266542 -5.442746,-0.0016 -5.442747,-0.0016 -3.181182,2.862968 -3.1811819,2.862968 2.1527553,0.01665 2.1527556,0.01665 v 0.3123407 c 0,0.430453 0.266441,1.234728 0.55805,1.684523 0.746317,1.151164 2.038487,1.789466 3.47892,1.718508 0.417044,-0.02054 0.579005,-0.0085 0.557546,0.04146 -0.352891,0.821653 -0.261151,1.493722 0.307609,2.253464 0.207733,0.277489 0.203727,0.279314 -0.820064,0.37348 -1.380691,0.126992 -2.579749,0.463139 -3.428684,0.961203 -0.580759,0.340729 -1.224776,1.019132 -1.501765,1.581947 -1.0226763,2.077986 0.35547,4.069035 3.168218,4.577222 0.583713,0.105461 2.142678,0.125442 2.774835,0.03557 z m -0.798144,-0.888097 c -1.566111,-0.135634 -2.799412,-0.836246 -3.256478,-1.849938 -0.225657,-0.500467 -0.281692,-1.246155 -0.132268,-1.760156 0.367111,-1.262818 1.817332,-2.012982 4.107256,-2.124584 l 0.806396,-0.0393 0.71251,0.540931 c 0.883846,0.671007 1.458361,1.262638 1.665528,1.715153 0.44513,0.972288 0.142342,2.195683 -0.70102,2.832427 -0.743142,0.561078 -1.865025,0.80125 -3.201924,0.685467 z m 0.0067,-9.607708 c -0.836482,-0.273443 -1.549366,-1.072013 -1.953141,-2.187898 -0.859842,-2.3762917 -0.249273,-4.2283027 1.495295,-4.5356027 1.553351,-0.273617 2.969206,1.409427 3.242298,3.854156 0.150295,1.3454577 -0.248551,2.2552157 -1.190818,2.7162237 -0.281883,0.137913 -0.45317,0.173984 -0.891945,0.187834 -0.298684,0.0094 -0.614444,-0.0062 -0.701689,-0.03471 z"
       id="path3074" />
  </g>
</svg>
