<?xml version="1.0" encoding="UTF-8" standalone="no"?>
<!-- Created with Inkscape (http://www.inkscape.org/) -->

<svg
   width="27.68092mm"
   height="27.677853mm"
   viewBox="0 0 27.68092 27.677853"
   version="1.1"
   id="svg5"
   inkscape:version="1.4.2 (f4327f4, 2025-05-13)"
   sodipodi:docname="linkedin.svg"
   xmlns:inkscape="http://www.inkscape.org/namespaces/inkscape"
   xmlns:sodipodi="http://sodipodi.sourceforge.net/DTD/sodipodi-0.dtd"
   xmlns="http://www.w3.org/2000/svg"
   xmlns:svg="http://www.w3.org/2000/svg">
  <sodipodi:namedview
     id="namedview7"
     pagecolor="#505050"
     bordercolor="#eeeeee"
     borderopacity="1"
     inkscape:pageshadow="0"
     inkscape:pageopacity="0"
     inkscape:pagecheckerboard="0"
     inkscape:document-units="mm"
     showgrid="false"
     fit-margin-top="0"
     fit-margin-left="0"
     fit-margin-right="0"
     fit-margin-bottom="0"
     inkscape:zoom="2.0737236"
     inkscape:cx="80.772577"
     inkscape:cy="68.234744"
     inkscape:window-width="1920"
     inkscape:window-height="1009"
     inkscape:window-x="-8"
     inkscape:window-y="-8"
     inkscape:window-maximized="1"
     inkscape:current-layer="layer1"
     inkscape:showpageshadow="0"
     inkscape:deskcolor="#d1d1d1" />
  <defs
     id="defs2" />
  <g
     inkscape:label="Capa 1"
     inkscape:groupmode="layer"
     id="layer1"
     transform="translate(-1.8375516,-1.1833926)">
    <path
       style="fill:#34495e;fill-opacity:1;stroke-width:0.0115328"
       d="M 14.956699,28.850722 C 11.77474,28.682031 8.8008818,27.452708 6.4224588,25.322866 c -0.237602,-0.212769 -0.831056,-0.806221 -1.043825,-1.043824 -0.938327,-1.047843 -1.724331,-2.24474 -2.294792,-3.494425 -0.736488,-1.613391 -1.141663,-3.284695 -1.234964,-5.094097 -0.02682,-0.520199 -0.004,-1.488022 0.04729,-2.004315 0.206549,-2.079541 0.841263,-4.0062553 1.905307,-5.7836774 0.436196,-0.72864 0.987181,-1.474049 1.577067,-2.13356 0.209754,-0.234511 0.829312,-0.853676 1.055446,-1.054775 1.061624,-0.944094 2.215646,-1.701457 3.471279,-2.278134 1.4795692,-0.679525 3.0874482,-1.09461 4.7112112,-1.21623 0.494803,-0.03706 1.30549,-0.04776 1.758746,-0.02321 2.321126,0.125707 4.458829,0.775087 6.423745,1.951373 0.728959,0.436387 1.476412,0.988933 2.13356,1.577209 0.237603,0.2127 0.83107,0.806168 1.043771,1.043771 1.156938,1.292385 2.055863,2.768971 2.658805,4.3673814 0.503905,1.335865 0.789794,2.71306 0.869777,4.189924 0.02624,0.484574 0.01335,1.299076 -0.02892,1.827942 -0.240843,3.012702 -1.46176,5.847345 -3.499464,8.124827 -0.220663,0.246629 -0.835226,0.85892 -1.077148,1.073165 -0.952452,0.843489 -1.940093,1.513439 -3.040297,2.062331 -1.724454,0.86033 -3.537182,1.334801 -5.489593,1.436869 -0.257016,0.01344 -1.1546,0.013 -1.412762,-6.81e-4 z M 11.975481,16.805816 V 11.898628 H 10.46469 8.9538988 v 4.907188 4.907188 h 1.5107912 1.510791 z m 4.869735,2.130677 0.0034,-2.776511 0.02523,-0.153295 c 0.01388,-0.08431 0.0407,-0.214763 0.05961,-0.289891 0.229843,-0.913255 0.882026,-1.394495 1.840614,-1.358172 0.20601,0.0078 0.338549,0.03002 0.500213,0.08383 0.626838,0.208655 0.977881,0.770697 1.061936,1.700228 0.0079,0.08727 0.01201,1.062362 0.01203,2.851474 v 2.718848 h 1.511168 1.51117 l -0.0039,-3.301252 c -0.0043,-3.648042 6.11e-4,-3.403323 -0.07781,-3.877933 -0.284739,-1.723401 -1.377104,-2.756745 -3.07899,-2.912668 -0.212254,-0.01945 -0.632337,-0.01637 -0.824592,0.006 -0.282608,0.03294 -0.540113,0.0924 -0.807293,0.186394 -0.14895,0.0524 -0.497758,0.224294 -0.647406,0.319042 -0.399871,0.253174 -0.779035,0.622303 -1.020926,0.9939 l -0.06735,0.103462 v -0.665683 -0.665684 h -1.453127 -1.453127 v 4.907188 4.907188 h 1.452899 1.452898 z M 10.789351,10.5733 c 0.818098,-0.163835 1.414262,-0.8621133 1.448199,-1.6962543 0.0367,-0.9020191 -0.573376,-1.6711711 -1.470145,-1.8534841 -0.152429,-0.03099 -0.509673,-0.02759 -0.664157,0.0063 -0.7430232,0.163068 -1.2904142,0.732012 -1.4165852,1.472361 -0.03101,0.18198 -0.02511,0.5051481 0.01229,0.6729291 0.07914,0.354991 0.237991,0.643683 0.496367,0.9020593 0.306602,0.306602 0.61038,0.452243 1.0906112,0.522872 0.07892,0.01161 0.395923,-0.0053 0.503419,-0.02679 z"
       id="path872" />
  </g>
</svg>
