<?xml version="1.0" encoding="UTF-8" standalone="no"?>
<!-- Created with Inkscape (http://www.inkscape.org/) -->

<svg
   width="24.98856mm"
   height="24.989384mm"
   viewBox="0 0 24.98856 24.989384"
   version="1.1"
   id="svg5"
   inkscape:version="1.4.2 (f4327f4, 2025-05-13)"
   sodipodi:docname="orcid.svg"
   xmlns:inkscape="http://www.inkscape.org/namespaces/inkscape"
   xmlns:sodipodi="http://sodipodi.sourceforge.net/DTD/sodipodi-0.dtd"
   xmlns="http://www.w3.org/2000/svg"
   xmlns:svg="http://www.w3.org/2000/svg">
  <sodipodi:namedview
     id="namedview7"
     pagecolor="#505050"
     bordercolor="#eeeeee"
     borderopacity="1"
     inkscape:pageshadow="0"
     inkscape:pageopacity="0"
     inkscape:pagecheckerboard="0"
     inkscape:document-units="mm"
     showgrid="false"
     fit-margin-top="0"
     fit-margin-left="0"
     fit-margin-right="0"
     fit-margin-bottom="0"
     inkscape:zoom="4.1474471"
     inkscape:cx="68.596414"
     inkscape:cy="42.556299"
     inkscape:window-width="1920"
     inkscape:window-height="1009"
     inkscape:window-x="-8"
     inkscape:window-y="-8"
     inkscape:window-maximized="1"
     inkscape:current-layer="layer1"
     inkscape:showpageshadow="0"
     inkscape:deskcolor="#d1d1d1" />
  <defs
     id="defs2" />
  <g
     inkscape:label="Capa 1"
     inkscape:groupmode="layer"
     id="layer1"
     transform="translate(-5.9242707,0.7579866)">
    <path
       style="fill:#34495e;fill-opacity:1;stroke-width:0.0122038"
       d="m 17.707051,24.220365 c -1.70125,-0.0996 -3.32067,-0.52595 -4.82051,-1.26907 -0.5393,-0.2672 -0.88136,-0.4643 -1.38513,-0.79814 -1.38229,-0.91599 -2.5712403,-2.10333 -3.4946403,-3.48991 -1.14235,-1.71535 -1.8252,-3.62378 -2.0329,-5.68157 -0.0433,-0.42893 -0.0496,-0.58733 -0.0496,-1.24479 0,-0.75285 0.0142,-1.00106 0.0922,-1.61701 0.33045,-2.6075102 1.51502,-5.0890902 3.34088,-6.9988902 0.9684803,-1.013 2.0463203,-1.82761 3.2609603,-2.46460004 1.41274,-0.74088 2.95484,-1.20132 4.557873,-1.36091 0.384971,-0.0383 0.52919,-0.0453 1.070395,-0.0517 0.676355,-0.008 1.067709,0.0102 1.638854,0.0763 2.670722,0.30889 5.194509,1.49547 7.145337,3.35946004 0.736751,0.70395 1.342423,1.43312 1.887248,2.27206 0.447752,0.68947 0.85156,1.47907 1.152712,2.25401 0.476534,1.22624 0.750429,2.50013 0.828635,3.8540102 0.02538,0.43931 0.01367,1.24742 -0.02492,1.72073 -0.190276,2.33353 -1.050206,4.59033 -2.464493,6.46781 -0.419068,0.55632 -0.855454,1.04557 -1.379182,1.54629 -1.296959,1.23996 -2.867954,2.19406 -4.570331,2.77567 -1.080015,0.36898 -2.20704,0.58651 -3.374357,0.65131 -0.24779,0.0138 -1.137979,0.0131 -1.379031,-0.001 z m 3.295031,-6.80873 c 0.865756,-0.0516 1.631268,-0.25164 2.335287,-0.61019 1.004112,-0.51138 1.790162,-1.30405 2.29036,-2.30965 0.283673,-0.5703 0.457511,-1.17855 0.518687,-1.81484 0.02419,-0.25157 0.02374,-0.72648 -9.27e-4,-0.98679 -0.117718,-1.24228 -0.640682,-2.3758002 -1.481759,-3.2117002 -0.782149,-0.77734 -1.825892,-1.27268 -3.03315,-1.43948 -0.486186,-0.0672 -0.412389,-0.0653 -2.828236,-0.0704 l -2.242453,-0.005 v 5.2299602 5.22997 l 2.120415,-1.4e-4 c 1.244321,-1.4e-4 2.203611,-0.005 2.321777,-0.0121 z m -2.953324,-5.21101 V 8.3198148 l 1.339369,6e-5 c 1.394566,6e-5 1.531261,0.004 1.879533,0.0555 0.980036,0.14461 1.747004,0.50196 2.328082,1.08473 0.175842,0.17635 0.276613,0.30007 0.42142,0.51738 0.31349,0.4704502 0.510846,1.0295002 0.593103,1.6800802 0.02687,0.21251 0.03064,0.77973 0.0064,0.958 -0.05828,0.42802 -0.150788,0.78267 -0.296789,1.13787 -0.213694,0.51988 -0.524673,0.96557 -0.931905,1.33557 -0.563114,0.51163 -1.320321,0.83582 -2.20279,0.94308 -0.344953,0.0419 -0.626664,0.0492 -1.900745,0.0493 l -1.235637,4e-5 z m -3.709957,-0.0122 V 6.9651848 h -0.74444 -0.74443 v 5.2232402 5.22323 h 0.74443 0.74444 z m -0.50524,-6.4561402 c 0.33718,-0.0862 0.61436,-0.36302 0.70851,-0.7075 0.03,-0.10979 0.0303,-0.36598 5.8e-4,-0.47595 -0.0283,-0.10465 -0.0943,-0.24253 -0.16,-0.33453 -0.20971,-0.2934 -0.58415,-0.45252 -0.93474,-0.39721 -0.40322,0.0636 -0.71913,0.35811 -0.81116,0.75614 -0.0266,0.11488 -0.0243,0.3282 0.005,0.44158 0.099,0.38711 0.42042,0.68031 0.81292,0.74157 0.099,0.0154 0.26609,0.005 0.37917,-0.0241 z"
       id="path5455" />
  </g>
</svg>
